<?xml version="1.0" encoding="UTF-8" standalone="no"?>
<!-- Created with Inkscape (http://www.inkscape.org/) -->

<svg
   xmlns:dc="http://purl.org/dc/elements/1.1/"
   xmlns:cc="http://creativecommons.org/ns#"
   xmlns:rdf="http://www.w3.org/1999/02/22-rdf-syntax-ns#"
   xmlns:svg="http://www.w3.org/2000/svg"
   xmlns="http://www.w3.org/2000/svg"
   xmlns:sodipodi="http://sodipodi.sourceforge.net/DTD/sodipodi-0.dtd"
   xmlns:inkscape="http://www.inkscape.org/namespaces/inkscape"
   width="256"
   height="128"
   viewBox="0 0 67.733332 33.866667"
   version="1.1"
   id="svg8"
   inkscape:version="0.92.3 (2405546, 2018-03-11)"
   sodipodi:docname="logo.svg">
  <defs
     id="defs2" />
  <sodipodi:namedview
     id="base"
     pagecolor="#ffffff"
     bordercolor="#666666"
     borderopacity="1.0"
     inkscape:pageopacity="0.0"
     inkscape:pageshadow="2"
     inkscape:zoom="3.3632813"
     inkscape:cx="161.68911"
     inkscape:cy="47.460984"
     inkscape:document-units="mm"
     inkscape:current-layer="layer1"
     showgrid="false"
     units="px"
     inkscape:window-width="1920"
     inkscape:window-height="1052"
     inkscape:window-x="1280"
     inkscape:window-y="0"
     inkscape:window-maximized="1" />
  <metadata
     id="metadata5">
    <rdf:RDF>
      <cc:Work
         rdf:about="">
        <dc:format>image/svg+xml</dc:format>
        <dc:type
           rdf:resource="http://purl.org/dc/dcmitype/StillImage" />
        <dc:title></dc:title>
      </cc:Work>
    </rdf:RDF>
  </metadata>
  <g
     inkscape:label="Ebene 1"
     inkscape:groupmode="layer"
     id="layer1"
     transform="translate(0,-263.13332)">
    <g
       id="g3853"
       transform="translate(3.3299019)">
      <g
         transform="matrix(0.86141844,0,0,0.86141844,2.9332422,37.640233)"
         id="g3787">
        <path
           style="stroke-width:0.26458332"
           d="M 13.412848,270.93515 1.297825,291.91888 H 25.52787 l -5.484936,-9.50071 -8.117334,-2.17454 4.350122,-4.35013 z"
           id="path3719"
           inkscape:connector-curvature="0" />
        <path
           sodipodi:type="star"
           id="path3721"
           sodipodi:sides="3"
           sodipodi:cx="18.352686"
           sodipodi:cy="278.49658"
           sodipodi:r1="4.1290045"
           sodipodi:r2="2.0645022"
           sodipodi:arg1="-1.3089969"
           sodipodi:arg2="-0.26179939"
           inkscape:flatsided="true"
           inkscape:rounded="0"
           inkscape:randomized="0"
           d="m 19.421351,274.50827 1.850982,6.90796 -6.907959,-1.85098 z"
           inkscape:transform-center-x="0.53433199"
           inkscape:transform-center-y="-0.53432382"
           style="stroke-width:0.1891797" />
        <path
           sodipodi:type="star"
           id="path3721-3"
           sodipodi:sides="3"
           sodipodi:cx="8.0082502"
           sodipodi:cy="273.42297"
           sodipodi:r1="2.5413115"
           sodipodi:r2="1.2706558"
           sodipodi:arg1="-1.3089969"
           sodipodi:arg2="-0.26179939"
           inkscape:flatsided="true"
           inkscape:rounded="0"
           inkscape:randomized="0"
           d="m 8.6659901,270.96826 1.1392387,4.25169 -4.251697,-1.13924 z"
           inkscape:transform-center-x="0.32886943"
           inkscape:transform-center-y="-0.32887235"
           style="stroke-width:0.11643595" />
        <path
           sodipodi:type="star"
           id="path3781"
           sodipodi:sides="3"
           sodipodi:cx="25.095161"
           sodipodi:cy="284.49173"
           sodipodi:r1="1.1826426"
           sodipodi:r2="0.59132129"
           sodipodi:arg1="0.066568164"
           sodipodi:arg2="1.1137657"
           inkscape:flatsided="true"
           inkscape:rounded="0"
           inkscape:randomized="0"
           d="m 26.275185,284.5704 -1.838164,0.90393 0.136258,-2.04386 z"
           inkscape:transform-center-x="-0.26094115"
           inkscape:transform-center-y="-0.039334377"
           style="stroke-width:0.26458332" />
      </g>
      <g
         id="text3791"
         style="font-style:normal;font-weight:normal;font-size:8.41950417px;line-height:1.25;font-family:sans-serif;letter-spacing:0px;word-spacing:0px;fill:#000000;fill-opacity:1;stroke:none;stroke-width:0.2104876"
         aria-label="ImperiumCMS">
        <path
           id="path3802"
           style="font-style:normal;font-variant:normal;font-weight:bold;font-stretch:normal;font-family:Uroob;-inkscape-font-specification:'Uroob Bold';stroke-width:0.2104876"
           d="m 23.825297,278.21457 h -0.75644 v -5.04841 q 0,-0.0822 0.06167,-0.14389 0.06167,-0.0617 0.143888,-0.0617 h 0.345331 q 0.08222,0 0.143888,0.0617 0.06167,0.0617 0.06167,0.14389 z"
           inkscape:connector-curvature="0" />
        <path
           id="path3804"
           style="font-style:normal;font-variant:normal;font-weight:bold;font-stretch:normal;font-family:Uroob;-inkscape-font-specification:'Uroob Bold';stroke-width:0.2104876"
           d="m 26.583836,274.49404 q 0.184999,-0.28778 0.489219,-0.28778 h 0.781107 q 0.357664,0 0.612551,0.24255 0.26311,0.24256 0.26311,0.60433 v 3.15732 h -0.702996 v -3.02165 q 0,-0.15622 -0.09044,-0.26311 -0.08633,-0.111 -0.254887,-0.111 h -0.559108 q -0.205554,0 -0.26722,0.28367 -0.01644,0.074 -0.01644,0.13566 v 2.97643 h -0.707106 v -3.08743 q 0,-0.20555 -0.217888,-0.28777 -0.06167,-0.0206 -0.123333,-0.0206 h -0.600218 q -0.246665,0 -0.246665,0.57966 v 2.8161 h -0.707107 v -4.0042 h 0.628996 v 0.24667 q 0.180888,-0.24667 0.439886,-0.24667 h 0.739996 q 0.345331,0 0.538552,0.28778 z"
           inkscape:connector-curvature="0" />
        <path
           id="path3806"
           style="font-style:normal;font-variant:normal;font-weight:bold;font-stretch:normal;font-family:Uroob;-inkscape-font-specification:'Uroob Bold';stroke-width:0.2104876"
           d="m 29.790483,274.4077 q 0.26722,-0.19322 0.596107,-0.19322 h 0.287776 q 0.522108,0 0.834551,0.30011 0.312442,0.296 0.312442,0.83044 v 1.64444 q 0,0.85921 -0.579663,1.12643 -0.201443,0.0904 -0.485108,0.0904 h -0.452219 q -0.267221,0 -0.45222,-0.20145 v 2.01032 h -0.711218 l 0.0041,-5.80074 h 0.645441 z m 1.327881,2.52832 v -1.49232 q 0,-0.32067 -0.06989,-0.42756 -0.127444,-0.19733 -0.423442,-0.19733 H 30.27148 q -0.127444,0 -0.230221,0.0658 -0.18911,0.11511 -0.18911,0.23844 v 2.06788 q 0,0.12333 0.106888,0.22611 0.193221,0.18089 0.312443,0.18089 h 0.353553 q 0.411109,0 0.472775,-0.407 0.02056,-0.11922 0.02056,-0.25489 z"
           inkscape:connector-curvature="0" />
        <path
           id="path3808"
           style="font-style:normal;font-variant:normal;font-weight:bold;font-stretch:normal;font-family:Uroob;-inkscape-font-specification:'Uroob Bold';stroke-width:0.2104876"
           d="m 34.875896,277.29369 q -0.01233,0.62077 -0.480997,0.84688 -0.156221,0.074 -0.357664,0.074 h -0.974328 q -0.365886,0 -0.608441,-0.26722 -0.238443,-0.259 -0.238443,-0.629 v -2.24465 q 0,-0.36589 0.213777,-0.62077 0.234332,-0.27134 0.591996,-0.27134 h 1.044216 q 0.365887,0 0.591997,0.29189 0.209665,0.26722 0.209665,0.64133 v 0.53444 q 0,0.36178 -0.193221,0.60844 -0.205554,0.26722 -0.56733,0.26722 h -1.200437 v 0.74411 q 0,0.32889 0.332998,0.32889 h 0.624885 q 0.139777,0 0.221999,-0.0781 0.08633,-0.0822 0.08222,-0.22611 z m -1.636212,-2.47488 q -0.332998,0 -0.332998,0.34533 v 0.75233 h 0.900328 q 0.156221,0 0.263109,-0.0863 0.111,-0.0904 0.111,-0.259 v -0.42344 q 0,-0.17267 -0.111,-0.25078 -0.106888,-0.0781 -0.263109,-0.0781 z"
           inkscape:connector-curvature="0" />
        <path
           id="path3810"
           style="font-style:normal;font-variant:normal;font-weight:bold;font-stretch:normal;font-family:Uroob;-inkscape-font-specification:'Uroob Bold';stroke-width:0.2104876"
           d="m 37.071217,274.8147 -0.41522,-0.004 q -0.517997,0 -0.674218,0.37411 -0.05344,0.12744 -0.05344,0.29189 v 2.73387 h -0.702996 l -0.0041,-3.64242 q -0.180888,0 -0.180888,-0.13567 v -0.23844 h 0.809884 v 0.37411 q 0.05756,-0.16445 0.209665,-0.27134 0.152111,-0.10688 0.324776,-0.10688 h 0.686552 z"
           inkscape:connector-curvature="0" />
        <path
           id="path3812"
           style="font-style:normal;font-variant:normal;font-weight:bold;font-stretch:normal;font-family:Uroob;-inkscape-font-specification:'Uroob Bold';stroke-width:0.2104876"
           d="m 37.835878,273.00582 q 0.452219,0 0.452219,0.46044 0,0.46456 -0.452219,0.46456 -0.221999,0 -0.34122,-0.11922 -0.119222,-0.12334 -0.119222,-0.34534 0,-0.22199 0.119222,-0.34122 0.119221,-0.11922 0.34122,-0.11922 z m 0.345331,5.18819 h -0.707107 v -3.99597 h 0.707107 z"
           inkscape:connector-curvature="0" />
        <path
           id="path3814"
           style="font-style:normal;font-variant:normal;font-weight:bold;font-stretch:normal;font-family:Uroob;-inkscape-font-specification:'Uroob Bold';stroke-width:0.2104876"
           d="m 41.256302,278.21046 h -0.624885 v -0.19733 q -0.168555,0.16855 -0.246666,0.18499 -0.074,0.0123 -0.15211,0.0123 h -0.822217 q -0.357664,0 -0.596107,-0.24256 -0.238443,-0.24666 -0.238443,-0.60433 v -3.15731 h 0.702995 v 3.02165 q 0,0.15622 0.08633,0.26722 0.09044,0.10689 0.258999,0.10689 h 0.600218 q 0.164444,0 0.254887,-0.19733 0.074,-0.15212 0.074,-0.34122 v -2.85721 h 0.702996 z"
           inkscape:connector-curvature="0" />
        <path
           id="path3816"
           style="font-style:normal;font-variant:normal;font-weight:bold;font-stretch:normal;font-family:Uroob;-inkscape-font-specification:'Uroob Bold';stroke-width:0.2104876"
           d="m 44.01484,274.49404 q 0.184999,-0.28778 0.489219,-0.28778 h 0.781107 q 0.357664,0 0.612552,0.24255 0.263109,0.24256 0.263109,0.60433 v 3.15732 h -0.702996 v -3.02165 q 0,-0.15622 -0.09044,-0.26311 -0.08633,-0.111 -0.254888,-0.111 h -0.559107 q -0.205555,0 -0.267221,0.28367 -0.01644,0.074 -0.01644,0.13566 v 2.97643 h -0.707107 v -3.08743 q 0,-0.20555 -0.217888,-0.28777 -0.06167,-0.0206 -0.123332,-0.0206 h -0.600219 q -0.246665,0 -0.246665,0.57966 v 2.8161 H 41.66741 v -4.0042 h 0.628996 v 0.24667 q 0.180888,-0.24667 0.439887,-0.24667 h 0.739995 q 0.345331,0 0.538552,0.28778 z"
           inkscape:connector-curvature="0" />
        <path
           id="path3818"
           style="font-style:normal;font-variant:normal;font-weight:bold;font-stretch:normal;font-family:Uroob;-inkscape-font-specification:'Uroob Bold';stroke-width:0.2104876"
           d="m 48.668591,273.99659 q 0,-0.39877 -0.324776,-0.39877 h -0.723551 q -0.160333,0 -0.234332,0.10278 -0.074,0.10277 -0.074,0.25077 v 3.26832 q 0,0.148 0.074,0.25077 0.074,0.10278 0.234332,0.10278 h 0.723551 q 0.316553,0 0.324776,-0.36589 0,-0.0987 0,-0.18911 h 0.744106 v 0.33711 q 0,0.37 -0.267221,0.61667 -0.26722,0.24255 -0.628996,0.24255 h -0.945549 q -0.382331,0 -0.682441,-0.23844 -0.320664,-0.25078 -0.320664,-0.62078 v -3.53964 q 0,-0.37411 0.320664,-0.62489 0.304221,-0.24255 0.682441,-0.24255 h 0.945549 q 0.365887,0 0.628996,0.25077 0.267221,0.25078 0.267221,0.61667 v 0.37822 h -0.744106 z"
           inkscape:connector-curvature="0" />
        <path
           id="path3820"
           style="font-style:normal;font-variant:normal;font-weight:bold;font-stretch:normal;font-family:Uroob;-inkscape-font-specification:'Uroob Bold';stroke-width:0.2104876"
           d="m 49.80736,273.16616 q 0,-0.23845 0.394664,-0.21378 0.09455,0.008 0.156221,0.008 v 0.004 h 0.08633 l 1.262104,2.85721 1.266214,-2.85721 h 0.04522 v -0.004 h 0.345331 q 0.147999,0 0.221999,0.12333 0.02467,0.037 0.02467,0.0822 v 5.04841 h -0.75644 v -3.25187 l -0.789329,1.87466 H 51.353128 L 50.5638,275.13537 v 3.0792 h -0.75644 z"
           inkscape:connector-curvature="0" />
        <path
           id="path3822"
           style="font-style:normal;font-variant:normal;font-weight:bold;font-stretch:normal;font-family:Uroob;-inkscape-font-specification:'Uroob Bold';stroke-width:0.2104876"
           d="m 55.106551,273.61426 q -0.312443,0 -0.312443,0.32478 v 1.01133 q 0,0.30833 0.312443,0.30833 h 1.089438 q 0.369997,0 0.600218,0.26722 0.22611,0.259 0.22611,0.62488 v 1.15111 q 0,0.37822 -0.242554,0.64133 -0.250776,0.27544 -0.624885,0.27544 h -1.274437 q -0.402886,0 -0.637218,-0.26311 -0.221999,-0.25489 -0.221999,-0.65777 h 0.707107 q -0.0082,0.14388 0.06989,0.20555 0.08222,0.0576 0.213777,0.0576 h 0.966105 q 0.312443,0 0.312443,-0.30834 v -1.01132 q 0,-0.32067 -0.312443,-0.32067 h -1.048327 q -0.374109,0 -0.624885,-0.27544 -0.242554,-0.26722 -0.242554,-0.64544 v -1.1511 q 0,-0.37 0.221999,-0.62489 0.242554,-0.27133 0.604329,-0.27133 H 56.1631 q 0.37822,0 0.60433,0.259 0.213776,0.24255 0.213776,0.6331 h -0.707107 q 0.0082,-0.23022 -0.283665,-0.23022 z"
           inkscape:connector-curvature="0" />
      </g>
    </g>
  </g>
</svg>
